<svg width="492.004" height="492.004" xmlns="http://www.w3.org/2000/svg">

 <g>
  <title>background</title>
  <rect fill="none" id="canvas_background" height="402" width="582" y="-1" x="-1"/>
 </g>
 <g>
  <title>Layer 1</title>
  <g id="svg_1">
   <g id="svg_2">
    <path fill="#352c23" id="svg_3" d="m382.678,226.804l-218.948,-218.944c-5.064,-5.068 -11.824,-7.86 -19.032,-7.86s-13.968,2.792 -19.032,7.86l-16.124,16.12c-10.492,10.504 -10.492,27.576 0,38.064l183.856,183.856l-184.06,184.06c-5.064,5.068 -7.86,11.824 -7.86,19.028c0,7.212 2.796,13.968 7.86,19.04l16.124,16.116c5.068,5.068 11.824,7.86 19.032,7.86s13.968,-2.792 19.032,-7.86l219.152,-219.144c5.076,-5.084 7.864,-11.872 7.848,-19.088c0.016,-7.244 -2.772,-14.028 -7.848,-19.108z"/>
   </g>
  </g>
  <g id="svg_4"/>
  <g id="svg_5"/>
  <g id="svg_6"/>
  <g id="svg_7"/>
  <g id="svg_8"/>
  <g id="svg_9"/>
  <g id="svg_10"/>
  <g id="svg_11"/>
  <g id="svg_12"/>
  <g id="svg_13"/>
  <g id="svg_14"/>
  <g id="svg_15"/>
  <g id="svg_16"/>
  <g id="svg_17"/>
  <g id="svg_18"/>
 </g>
</svg>