<svg width="512" height="336" xmlns="http://www.w3.org/2000/svg">

 <g>
  <title>background</title>
  <rect fill="none" id="canvas_background" height="338" width="514" y="-1" x="-1"/>
 </g>
 <g>
  <title>Layer 1</title>
  <path id="svg_1" fill="#F5F5F5" d="m473.655,0.276l-435.31,0c-21.178,0 -38.345,17.167 -38.345,38.345l0,258.759c0,21.177 17.167,38.345 38.345,38.345l435.31,0c21.177,0 38.345,-17.167 38.345,-38.345l0,-258.759c0,-21.178 -17.167,-38.345 -38.345,-38.345z"/>
  <g id="svg_2">
   <path id="svg_3" fill="#FF4B55" d="m2.109,26.08l507.781,0c-5.196,-15.017 -19.452,-25.804 -36.235,-25.804l-435.31,0c-16.784,0 -31.039,10.787 -36.236,25.804z"/>
   <rect x="0" id="svg_4" fill="#FF4B55" height="25.803" width="512" y="103.49"/>
   <rect x="0" id="svg_5" fill="#FF4B55" height="25.803" width="512" y="51.88"/>
   <path id="svg_6" fill="#FF4B55" d="m0,172.074c0,4.875 3.953,8.828 8.828,8.828l503.172,0l0,-25.804l-512,0l0,16.976z"/>
   <rect x="0" id="svg_7" fill="#FF4B55" height="25.804" width="512" y="258.32"/>
   <path id="svg_8" fill="#FF4B55" d="m509.891,309.92l-507.782,0c5.197,15.017 19.453,25.804 36.236,25.804l435.31,0c16.784,0 31.039,-10.787 36.236,-25.804z"/>
   <rect x="0" id="svg_9" fill="#FF4B55" height="25.803" width="512" y="206.71"/>
  </g>
  <path id="svg_10" fill="#41479B" d="m8.828,180.902l220.69,0c4.875,0 8.828,-3.953 8.828,-8.828l0,-162.971c0,-4.876 -3.953,-8.828 -8.828,-8.828l-191.173,0c-21.178,0.001 -38.345,17.168 -38.345,38.346l0,133.453c0,4.876 3.953,8.828 8.828,8.828z"/>
  <g id="svg_11">
   <path id="svg_12" fill="#F5F5F5" d="m24.789,20.537l1.954,5.86l6.177,0.047c0.8,0.007 1.131,1.027 0.488,1.502l-4.969,3.669l1.864,5.889c0.242,0.762 -0.627,1.394 -1.278,0.928l-5.025,-3.591l-5.025,3.592c-0.651,0.466 -1.518,-0.166 -1.278,-0.928l1.864,-5.889l-4.969,-3.669c-0.643,-0.476 -0.312,-1.496 0.488,-1.502l6.177,-0.047l1.954,-5.86c0.252,-0.76 1.324,-0.76 1.578,-0.001z"/>
   <path id="svg_13" fill="#F5F5F5" d="m24.789,51.191l1.954,5.86l6.177,0.047c0.8,0.007 1.131,1.026 0.488,1.502l-4.969,3.67l1.864,5.889c0.242,0.762 -0.627,1.394 -1.278,0.928l-5.025,-3.591l-5.025,3.592c-0.651,0.465 -1.518,-0.166 -1.278,-0.928l1.864,-5.889l-4.969,-3.67c-0.643,-0.476 -0.312,-1.495 0.488,-1.502l6.177,-0.047l1.954,-5.86c0.252,-0.759 1.324,-0.759 1.578,-0.001z"/>
   <path id="svg_14" fill="#F5F5F5" d="m24.789,81.846l1.954,5.86l6.177,0.047c0.8,0.007 1.131,1.026 0.488,1.502l-4.969,3.67l1.864,5.889c0.242,0.762 -0.627,1.394 -1.278,0.928l-5.025,-3.591l-5.025,3.592c-0.651,0.465 -1.518,-0.165 -1.278,-0.928l1.864,-5.889l-4.969,-3.67c-0.643,-0.476 -0.312,-1.495 0.488,-1.502l6.177,-0.047l1.954,-5.86c0.252,-0.76 1.324,-0.76 1.578,-0.001z"/>
   <path id="svg_15" fill="#F5F5F5" d="m24.789,112.5l1.954,5.86l6.177,0.047c0.8,0.007 1.131,1.027 0.488,1.502l-4.969,3.67l1.864,5.889c0.242,0.762 -0.627,1.394 -1.278,0.928l-5.025,-3.591l-5.025,3.592c-0.651,0.465 -1.518,-0.166 -1.278,-0.928l1.864,-5.889l-4.969,-3.67c-0.643,-0.474 -0.312,-1.495 0.488,-1.502l6.177,-0.047l1.954,-5.86c0.252,-0.76 1.324,-0.76 1.578,-0.001z"/>
   <path id="svg_16" fill="#F5F5F5" d="m24.789,143.154l1.954,5.86l6.177,0.047c0.8,0.007 1.131,1.026 0.488,1.502l-4.969,3.67l1.864,5.889c0.242,0.762 -0.627,1.394 -1.278,0.928l-5.025,-3.591l-5.025,3.592c-0.651,0.465 -1.518,-0.166 -1.278,-0.928l1.864,-5.889l-4.969,-3.67c-0.643,-0.476 -0.312,-1.495 0.488,-1.502l6.177,-0.047l1.954,-5.86c0.252,-0.759 1.324,-0.759 1.578,-0.001z"/>
   <path id="svg_17" fill="#F5F5F5" d="m48.582,35.566l1.954,5.86l6.177,0.047c0.8,0.007 1.131,1.027 0.488,1.502l-4.969,3.67l1.864,5.889c0.242,0.762 -0.627,1.394 -1.278,0.928l-5.025,-3.592l-5.025,3.592c-0.651,0.465 -1.518,-0.166 -1.278,-0.928l1.864,-5.889l-4.969,-3.67c-0.643,-0.476 -0.312,-1.495 0.488,-1.502l6.177,-0.047l1.954,-5.86c0.252,-0.758 1.325,-0.758 1.578,0z"/>
   <path id="svg_18" fill="#F5F5F5" d="m48.582,66.221l1.954,5.86l6.177,0.047c0.8,0.007 1.131,1.027 0.488,1.502l-4.969,3.67l1.864,5.889c0.242,0.762 -0.627,1.394 -1.278,0.928l-5.025,-3.592l-5.025,3.592c-0.651,0.465 -1.518,-0.165 -1.278,-0.928l1.864,-5.889l-4.969,-3.67c-0.643,-0.474 -0.312,-1.495 0.488,-1.502l6.177,-0.047l1.954,-5.86c0.252,-0.759 1.325,-0.759 1.578,0z"/>
   <path id="svg_19" fill="#F5F5F5" d="m48.582,96.875l1.954,5.86l6.177,0.047c0.8,0.007 1.131,1.026 0.488,1.502l-4.969,3.67l1.864,5.889c0.242,0.762 -0.627,1.394 -1.278,0.928l-5.025,-3.592l-5.025,3.592c-0.651,0.465 -1.518,-0.166 -1.278,-0.928l1.864,-5.889l-4.969,-3.67c-0.643,-0.476 -0.312,-1.495 0.488,-1.502l6.177,-0.047l1.954,-5.86c0.252,-0.759 1.325,-0.759 1.578,0z"/>
   <path id="svg_20" fill="#F5F5F5" d="m48.582,127.529l1.954,5.86l6.177,0.047c0.8,0.007 1.131,1.026 0.488,1.502l-4.969,3.67l1.864,5.889c0.242,0.762 -0.627,1.394 -1.278,0.928l-5.025,-3.592l-5.025,3.592c-0.651,0.466 -1.518,-0.166 -1.278,-0.928l1.864,-5.889l-4.969,-3.67c-0.643,-0.476 -0.312,-1.495 0.488,-1.502l6.177,-0.047l1.954,-5.86c0.252,-0.758 1.325,-0.758 1.578,0z"/>
   <path id="svg_21" fill="#F5F5F5" d="m72.375,20.537l1.954,5.86l6.177,0.047c0.8,0.007 1.131,1.027 0.488,1.502l-4.969,3.669l1.864,5.889c0.242,0.762 -0.627,1.394 -1.278,0.928l-5.025,-3.592l-5.025,3.592c-0.651,0.466 -1.518,-0.166 -1.278,-0.928l1.864,-5.889l-4.969,-3.669c-0.643,-0.476 -0.312,-1.496 0.488,-1.502l6.177,-0.047l1.954,-5.86c0.252,-0.759 1.325,-0.759 1.578,0z"/>
   <path id="svg_22" fill="#F5F5F5" d="m72.375,51.191l1.954,5.86l6.177,0.047c0.8,0.007 1.131,1.026 0.488,1.502l-4.969,3.67l1.864,5.889c0.242,0.762 -0.627,1.394 -1.278,0.928l-5.025,-3.592l-5.025,3.592c-0.651,0.465 -1.518,-0.166 -1.278,-0.928l1.864,-5.889l-4.969,-3.67c-0.643,-0.476 -0.312,-1.495 0.488,-1.502l6.177,-0.047l1.954,-5.86c0.252,-0.758 1.325,-0.758 1.578,0z"/>
   <path id="svg_23" fill="#F5F5F5" d="m72.375,81.846l1.954,5.86l6.177,0.047c0.8,0.007 1.131,1.026 0.488,1.502l-4.969,3.67l1.864,5.889c0.242,0.762 -0.627,1.394 -1.278,0.928l-5.025,-3.592l-5.025,3.592c-0.651,0.465 -1.518,-0.165 -1.278,-0.928l1.864,-5.889l-4.969,-3.67c-0.643,-0.476 -0.312,-1.495 0.488,-1.502l6.177,-0.047l1.954,-5.86c0.252,-0.759 1.325,-0.759 1.578,0z"/>
   <path id="svg_24" fill="#F5F5F5" d="m72.375,112.5l1.954,5.86l6.177,0.047c0.8,0.007 1.131,1.027 0.488,1.502l-4.969,3.67l1.864,5.889c0.242,0.762 -0.627,1.394 -1.278,0.928l-5.025,-3.592l-5.025,3.592c-0.651,0.465 -1.518,-0.166 -1.278,-0.928l1.864,-5.889l-4.969,-3.67c-0.643,-0.474 -0.312,-1.495 0.488,-1.502l6.177,-0.047l1.954,-5.86c0.252,-0.759 1.325,-0.759 1.578,0z"/>
   <path id="svg_25" fill="#F5F5F5" d="m72.375,143.154l1.954,5.86l6.177,0.047c0.8,0.007 1.131,1.026 0.488,1.502l-4.969,3.67l1.864,5.889c0.242,0.762 -0.627,1.394 -1.278,0.928l-5.025,-3.592l-5.025,3.592c-0.651,0.465 -1.518,-0.166 -1.278,-0.928l1.864,-5.889l-4.969,-3.67c-0.643,-0.476 -0.312,-1.495 0.488,-1.502l6.177,-0.047l1.954,-5.86c0.252,-0.758 1.325,-0.758 1.578,0z"/>
   <path id="svg_26" fill="#F5F5F5" d="m96.169,35.566l1.954,5.86l6.177,0.047c0.8,0.007 1.131,1.027 0.488,1.502l-4.969,3.67l1.864,5.889c0.242,0.762 -0.627,1.394 -1.278,0.928l-5.025,-3.592l-5.025,3.592c-0.651,0.465 -1.518,-0.166 -1.278,-0.928l1.864,-5.889l-4.969,-3.67c-0.643,-0.476 -0.312,-1.495 0.488,-1.502l6.177,-0.047l1.954,-5.86c0.251,-0.758 1.325,-0.758 1.578,0z"/>
   <path id="svg_27" fill="#F5F5F5" d="m96.169,66.221l1.954,5.86l6.177,0.047c0.8,0.007 1.131,1.027 0.488,1.502l-4.969,3.67l1.864,5.889c0.242,0.762 -0.627,1.394 -1.278,0.928l-5.025,-3.592l-5.025,3.592c-0.651,0.465 -1.518,-0.165 -1.278,-0.928l1.864,-5.889l-4.969,-3.67c-0.643,-0.474 -0.312,-1.495 0.488,-1.502l6.177,-0.047l1.954,-5.86c0.251,-0.759 1.325,-0.759 1.578,0z"/>
   <path id="svg_28" fill="#F5F5F5" d="m96.169,96.875l1.954,5.86l6.177,0.047c0.8,0.007 1.131,1.026 0.488,1.502l-4.969,3.67l1.864,5.889c0.242,0.762 -0.627,1.394 -1.278,0.928l-5.025,-3.592l-5.025,3.592c-0.651,0.465 -1.518,-0.166 -1.278,-0.928l1.864,-5.889l-4.969,-3.67c-0.643,-0.476 -0.312,-1.495 0.488,-1.502l6.177,-0.047l1.954,-5.86c0.251,-0.759 1.325,-0.759 1.578,0z"/>
   <path id="svg_29" fill="#F5F5F5" d="m96.169,127.529l1.954,5.86l6.177,0.047c0.8,0.007 1.131,1.026 0.488,1.502l-4.969,3.67l1.864,5.889c0.242,0.762 -0.627,1.394 -1.278,0.928l-5.025,-3.592l-5.025,3.592c-0.651,0.466 -1.518,-0.166 -1.278,-0.928l1.864,-5.889l-4.969,-3.67c-0.643,-0.476 -0.312,-1.495 0.488,-1.502l6.177,-0.047l1.954,-5.86c0.251,-0.758 1.325,-0.758 1.578,0z"/>
   <path id="svg_30" fill="#F5F5F5" d="m119.962,20.537l1.954,5.86l6.177,0.047c0.8,0.007 1.131,1.027 0.488,1.502l-4.969,3.669l1.864,5.889c0.242,0.762 -0.627,1.394 -1.278,0.928l-5.026,-3.591l-5.025,3.592c-0.651,0.466 -1.518,-0.166 -1.278,-0.928l1.864,-5.889l-4.969,-3.669c-0.643,-0.476 -0.312,-1.496 0.488,-1.502l6.177,-0.047l1.954,-5.86c0.253,-0.76 1.326,-0.76 1.579,-0.001z"/>
   <path id="svg_31" fill="#F5F5F5" d="m119.962,51.191l1.954,5.86l6.177,0.047c0.8,0.007 1.131,1.026 0.488,1.502l-4.969,3.67l1.864,5.889c0.242,0.762 -0.627,1.394 -1.278,0.928l-5.026,-3.592l-5.025,3.592c-0.651,0.465 -1.518,-0.166 -1.278,-0.928l1.864,-5.889l-4.969,-3.67c-0.643,-0.476 -0.312,-1.495 0.488,-1.502l6.177,-0.047l1.954,-5.86c0.253,-0.758 1.326,-0.758 1.579,0z"/>
   <path id="svg_32" fill="#F5F5F5" d="m119.962,81.846l1.954,5.86l6.177,0.047c0.8,0.007 1.131,1.026 0.488,1.502l-4.969,3.67l1.864,5.889c0.242,0.762 -0.627,1.394 -1.278,0.928l-5.026,-3.593l-5.025,3.592c-0.651,0.465 -1.518,-0.166 -1.278,-0.928l1.864,-5.889l-4.969,-3.67c-0.643,-0.476 -0.312,-1.495 0.488,-1.502l6.177,-0.047l1.954,-5.86c0.253,-0.758 1.326,-0.758 1.579,0.001z"/>
   <path id="svg_33" fill="#F5F5F5" d="m119.962,112.5l1.954,5.86l6.177,0.047c0.8,0.007 1.131,1.027 0.488,1.502l-4.969,3.67l1.864,5.889c0.242,0.762 -0.627,1.394 -1.278,0.928l-5.026,-3.592l-5.025,3.592c-0.651,0.465 -1.518,-0.166 -1.278,-0.928l1.864,-5.889l-4.969,-3.67c-0.643,-0.474 -0.312,-1.495 0.488,-1.502l6.177,-0.047l1.954,-5.86c0.253,-0.759 1.326,-0.759 1.579,0z"/>
   <path id="svg_34" fill="#F5F5F5" d="m119.962,143.154l1.954,5.86l6.177,0.047c0.8,0.007 1.131,1.026 0.488,1.502l-4.969,3.67l1.864,5.889c0.242,0.762 -0.627,1.394 -1.278,0.928l-5.026,-3.592l-5.025,3.592c-0.651,0.465 -1.518,-0.166 -1.278,-0.928l1.864,-5.889l-4.969,-3.67c-0.643,-0.476 -0.312,-1.495 0.488,-1.502l6.177,-0.047l1.954,-5.86c0.253,-0.758 1.326,-0.758 1.579,0z"/>
   <path id="svg_35" fill="#F5F5F5" d="m143.755,35.566l1.954,5.86l6.177,0.047c0.8,0.007 1.131,1.027 0.488,1.502l-4.969,3.67l1.864,5.889c0.242,0.762 -0.627,1.394 -1.278,0.928l-5.025,-3.592l-5.025,3.592c-0.651,0.465 -1.518,-0.166 -1.278,-0.928l1.864,-5.889l-4.969,-3.67c-0.643,-0.476 -0.312,-1.495 0.488,-1.502l6.177,-0.047l1.954,-5.86c0.253,-0.758 1.325,-0.758 1.578,0z"/>
   <path id="svg_36" fill="#F5F5F5" d="m143.755,66.221l1.954,5.86l6.177,0.047c0.8,0.007 1.131,1.027 0.488,1.502l-4.969,3.67l1.864,5.889c0.242,0.762 -0.627,1.394 -1.278,0.928l-5.025,-3.592l-5.025,3.592c-0.651,0.465 -1.518,-0.165 -1.278,-0.928l1.864,-5.889l-4.969,-3.67c-0.643,-0.474 -0.312,-1.495 0.488,-1.502l6.177,-0.047l1.954,-5.86c0.253,-0.759 1.325,-0.759 1.578,0z"/>
   <path id="svg_37" fill="#F5F5F5" d="m143.755,96.875l1.954,5.86l6.177,0.047c0.8,0.007 1.131,1.026 0.488,1.502l-4.969,3.67l1.864,5.889c0.242,0.762 -0.627,1.394 -1.278,0.928l-5.025,-3.592l-5.025,3.592c-0.651,0.465 -1.518,-0.166 -1.278,-0.928l1.864,-5.889l-4.969,-3.67c-0.643,-0.476 -0.312,-1.495 0.488,-1.502l6.177,-0.047l1.954,-5.86c0.253,-0.759 1.325,-0.759 1.578,0z"/>
   <path id="svg_38" fill="#F5F5F5" d="m143.755,127.529l1.954,5.86l6.177,0.047c0.8,0.007 1.131,1.026 0.488,1.502l-4.969,3.67l1.864,5.889c0.242,0.762 -0.627,1.394 -1.278,0.928l-5.025,-3.592l-5.025,3.592c-0.651,0.466 -1.518,-0.166 -1.278,-0.928l1.864,-5.889l-4.969,-3.67c-0.643,-0.476 -0.312,-1.495 0.488,-1.502l6.177,-0.047l1.954,-5.86c0.253,-0.758 1.325,-0.758 1.578,0z"/>
   <path id="svg_39" fill="#F5F5F5" d="m167.549,20.537l1.954,5.86l6.177,0.047c0.8,0.007 1.131,1.027 0.488,1.502l-4.969,3.669l1.864,5.889c0.242,0.762 -0.627,1.394 -1.278,0.928l-5.025,-3.592l-5.025,3.592c-0.651,0.466 -1.518,-0.166 -1.278,-0.928l1.864,-5.889l-4.969,-3.669c-0.643,-0.476 -0.312,-1.496 0.488,-1.502l6.177,-0.047l1.954,-5.86c0.251,-0.759 1.325,-0.759 1.578,0z"/>
   <path id="svg_40" fill="#F5F5F5" d="m167.549,51.191l1.954,5.86l6.177,0.047c0.8,0.007 1.131,1.026 0.488,1.502l-4.969,3.67l1.864,5.889c0.242,0.762 -0.627,1.394 -1.278,0.928l-5.025,-3.592l-5.025,3.592c-0.651,0.465 -1.518,-0.166 -1.278,-0.928l1.864,-5.889l-4.969,-3.67c-0.643,-0.476 -0.312,-1.495 0.488,-1.502l6.177,-0.047l1.954,-5.86c0.251,-0.758 1.325,-0.758 1.578,0z"/>
   <path id="svg_41" fill="#F5F5F5" d="m167.549,81.846l1.954,5.86l6.177,0.047c0.8,0.007 1.131,1.026 0.488,1.502l-4.969,3.67l1.864,5.889c0.242,0.762 -0.627,1.394 -1.278,0.928l-5.025,-3.592l-5.025,3.592c-0.651,0.465 -1.518,-0.165 -1.278,-0.928l1.864,-5.889l-4.969,-3.67c-0.643,-0.476 -0.312,-1.495 0.488,-1.502l6.177,-0.047l1.954,-5.86c0.251,-0.759 1.325,-0.759 1.578,0z"/>
   <path id="svg_42" fill="#F5F5F5" d="m167.549,112.5l1.954,5.86l6.177,0.047c0.8,0.007 1.131,1.027 0.488,1.502l-4.969,3.67l1.864,5.889c0.242,0.762 -0.627,1.394 -1.278,0.928l-5.025,-3.592l-5.025,3.592c-0.651,0.465 -1.518,-0.166 -1.278,-0.928l1.864,-5.889l-4.969,-3.67c-0.643,-0.474 -0.312,-1.495 0.488,-1.502l6.177,-0.047l1.954,-5.86c0.251,-0.759 1.325,-0.759 1.578,0z"/>
   <path id="svg_43" fill="#F5F5F5" d="m167.549,143.154l1.954,5.86l6.177,0.047c0.8,0.007 1.131,1.026 0.488,1.502l-4.969,3.67l1.864,5.889c0.242,0.762 -0.627,1.394 -1.278,0.928l-5.025,-3.592l-5.025,3.592c-0.651,0.465 -1.518,-0.166 -1.278,-0.928l1.864,-5.889l-4.969,-3.67c-0.643,-0.476 -0.312,-1.495 0.488,-1.502l6.177,-0.047l1.954,-5.86c0.251,-0.758 1.325,-0.758 1.578,0z"/>
   <path id="svg_44" fill="#F5F5F5" d="m191.342,35.566l1.954,5.86l6.177,0.047c0.8,0.007 1.131,1.027 0.488,1.502l-4.969,3.67l1.864,5.889c0.242,0.762 -0.627,1.394 -1.278,0.928l-5.025,-3.592l-5.025,3.592c-0.651,0.465 -1.518,-0.166 -1.278,-0.928l1.864,-5.889l-4.969,-3.67c-0.643,-0.476 -0.312,-1.495 0.488,-1.502l6.177,-0.047l1.954,-5.86c0.252,-0.758 1.325,-0.758 1.578,0z"/>
   <path id="svg_45" fill="#F5F5F5" d="m191.342,66.221l1.954,5.86l6.177,0.047c0.8,0.007 1.131,1.027 0.488,1.502l-4.969,3.67l1.864,5.889c0.242,0.762 -0.627,1.394 -1.278,0.928l-5.025,-3.592l-5.025,3.592c-0.651,0.465 -1.518,-0.165 -1.278,-0.928l1.864,-5.889l-4.969,-3.67c-0.643,-0.474 -0.312,-1.495 0.488,-1.502l6.177,-0.047l1.954,-5.86c0.252,-0.759 1.325,-0.759 1.578,0z"/>
   <path id="svg_46" fill="#F5F5F5" d="m191.342,96.875l1.954,5.86l6.177,0.047c0.8,0.007 1.131,1.026 0.488,1.502l-4.969,3.67l1.864,5.889c0.242,0.762 -0.627,1.394 -1.278,0.928l-5.025,-3.592l-5.025,3.592c-0.651,0.465 -1.518,-0.166 -1.278,-0.928l1.864,-5.889l-4.969,-3.67c-0.643,-0.476 -0.312,-1.495 0.488,-1.502l6.177,-0.047l1.954,-5.86c0.252,-0.759 1.325,-0.759 1.578,0z"/>
   <path id="svg_47" fill="#F5F5F5" d="m191.342,127.529l1.954,5.86l6.177,0.047c0.8,0.007 1.131,1.026 0.488,1.502l-4.969,3.67l1.864,5.889c0.242,0.762 -0.627,1.394 -1.278,0.928l-5.025,-3.592l-5.025,3.592c-0.651,0.466 -1.518,-0.166 -1.278,-0.928l1.864,-5.889l-4.969,-3.67c-0.643,-0.476 -0.312,-1.495 0.488,-1.502l6.177,-0.047l1.954,-5.86c0.252,-0.758 1.325,-0.758 1.578,0z"/>
   <path id="svg_48" fill="#F5F5F5" d="m215.136,20.537l1.954,5.86l6.177,0.047c0.8,0.007 1.131,1.027 0.488,1.502l-4.969,3.669l1.864,5.889c0.242,0.762 -0.627,1.394 -1.278,0.928l-5.025,-3.592l-5.025,3.592c-0.651,0.466 -1.518,-0.166 -1.278,-0.928l1.864,-5.889l-4.969,-3.669c-0.643,-0.476 -0.312,-1.496 0.488,-1.502l6.177,-0.047l1.954,-5.86c0.252,-0.759 1.324,-0.759 1.578,0z"/>
   <path id="svg_49" fill="#F5F5F5" d="m215.136,51.191l1.954,5.86l6.177,0.047c0.8,0.007 1.131,1.026 0.488,1.502l-4.969,3.67l1.864,5.889c0.242,0.762 -0.627,1.394 -1.278,0.928l-5.025,-3.592l-5.025,3.592c-0.651,0.465 -1.518,-0.166 -1.278,-0.928l1.864,-5.889l-4.969,-3.67c-0.643,-0.476 -0.312,-1.495 0.488,-1.502l6.177,-0.047l1.954,-5.86c0.252,-0.758 1.324,-0.758 1.578,0z"/>
   <path id="svg_50" fill="#F5F5F5" d="m215.136,81.846l1.954,5.86l6.177,0.047c0.8,0.007 1.131,1.026 0.488,1.502l-4.969,3.67l1.864,5.889c0.242,0.762 -0.627,1.394 -1.278,0.928l-5.025,-3.592l-5.025,3.592c-0.651,0.465 -1.518,-0.165 -1.278,-0.928l1.864,-5.889l-4.969,-3.67c-0.643,-0.476 -0.312,-1.495 0.488,-1.502l6.177,-0.047l1.954,-5.86c0.252,-0.759 1.324,-0.759 1.578,0z"/>
   <path id="svg_51" fill="#F5F5F5" d="m215.136,112.5l1.954,5.86l6.177,0.047c0.8,0.007 1.131,1.027 0.488,1.502l-4.969,3.67l1.864,5.889c0.242,0.762 -0.627,1.394 -1.278,0.928l-5.025,-3.592l-5.025,3.592c-0.651,0.465 -1.518,-0.166 -1.278,-0.928l1.864,-5.889l-4.969,-3.67c-0.643,-0.474 -0.312,-1.495 0.488,-1.502l6.177,-0.047l1.954,-5.86c0.252,-0.759 1.324,-0.759 1.578,0z"/>
   <path id="svg_52" fill="#F5F5F5" d="m215.136,143.154l1.954,5.86l6.177,0.047c0.8,0.007 1.131,1.026 0.488,1.502l-4.969,3.67l1.864,5.889c0.242,0.762 -0.627,1.394 -1.278,0.928l-5.025,-3.592l-5.025,3.592c-0.651,0.465 -1.518,-0.166 -1.278,-0.928l1.864,-5.889l-4.969,-3.67c-0.643,-0.476 -0.312,-1.495 0.488,-1.502l6.177,-0.047l1.954,-5.86c0.252,-0.758 1.324,-0.758 1.578,0z"/>
  </g>
  <g id="svg_53"/>
  <g id="svg_54"/>
  <g id="svg_55"/>
  <g id="svg_56"/>
  <g id="svg_57"/>
  <g id="svg_58"/>
  <g id="svg_59"/>
  <g id="svg_60"/>
  <g id="svg_61"/>
  <g id="svg_62"/>
  <g id="svg_63"/>
  <g id="svg_64"/>
  <g id="svg_65"/>
  <g id="svg_66"/>
  <g id="svg_67"/>
 </g>
</svg>